<?xml version="1.0" standalone="no"?>
<!DOCTYPE svg PUBLIC "-//W3C//DTD SVG 20010904//EN"
 "http://www.w3.org/TR/2001/REC-SVG-20010904/DTD/svg10.dtd">
<svg version="1.0" xmlns="http://www.w3.org/2000/svg"
 width="260.000000pt" height="260.000000pt" viewBox="0 0 260.000000 260.000000"
 preserveAspectRatio="xMidYMid meet">
<metadata>
Created by potrace 1.14, written by Peter Selinger 2001-2017
</metadata>
<g transform="translate(0.000000,260.000000) scale(0.100000,-0.100000)"
fill="#000000" stroke="none">
<path d="M1217 2563 c-7 -13 -20 -66 -23 -98 -17 -151 -15 -162 29 -170 38 -6
88 -15 102 -18 6 -2 16 -6 23 -10 6 -5 12 -6 12 -3 0 3 25 -5 55 -19 72 -31
79 -18 35 68 -43 86 -110 174 -167 219 -50 39 -59 43 -66 31z"/>
<path d="M757 2475 c-9 -8 -14 -21 -12 -28 3 -7 6 -30 8 -52 3 -22 6 -47 9
-55 3 -8 16 -49 29 -90 13 -41 26 -77 29 -80 3 -3 13 -19 23 -37 16 -29 16
-33 1 -47 -8 -9 -18 -16 -22 -16 -4 0 -25 -16 -47 -35 -22 -19 -44 -39 -50
-43 -24 -20 -114 -127 -138 -163 l-17 -26 30 5 31 4 -36 -36 c-19 -20 -35 -40
-35 -44 0 -5 -8 -17 -17 -28 -23 -24 -127 -237 -124 -251 1 -2 1 -4 0 -5 -6
-22 -15 -65 -24 -128 -8 -49 -11 -249 -5 -318 4 -43 29 -80 37 -54 5 14 23 16
23 2 0 -16 83 -205 92 -208 4 -2 8 -10 8 -19 0 -15 31 -65 57 -91 7 -7 13 -17
13 -22 0 -11 133 -145 179 -180 18 -14 42 -33 53 -43 24 -19 38 -22 38 -7 0 6
-4 10 -10 10 -5 0 -10 7 -10 15 0 8 -4 15 -10 15 -5 0 -10 6 -10 13 0 6 -13
26 -28 42 -15 17 -38 48 -51 70 l-23 40 24 -25 c38 -41 128 -113 134 -107 6 6
-20 50 -69 117 -24 33 -31 48 -19 41 10 -5 24 -17 32 -25 7 -9 18 -16 25 -16
7 0 18 -7 25 -15 7 -8 16 -12 21 -9 5 3 9 1 9 -4 0 -9 239 -130 268 -135 9 -2
33 -10 52 -19 53 -24 213 -89 232 -95 15 -5 17 2 13 57 -3 35 -10 81 -16 102
-6 22 -9 42 -6 44 4 4 64 -67 84 -101 25 -41 76 -150 76 -162 0 -7 3 -13 6
-13 6 0 28 -66 36 -106 2 -10 4 -19 5 -19 1 0 4 -13 6 -30 7 -39 11 -42 29
-19 12 17 87 161 91 174 0 3 3 12 6 20 55 149 71 232 70 359 -1 40 1 72 3 69
13 -13 55 -80 55 -88 0 -6 4 -10 9 -10 8 0 33 -50 33 -67 0 -4 5 -16 10 -27
15 -27 27 -3 21 43 -2 20 -5 43 -5 51 -1 28 -36 126 -69 196 -35 72 -132 199
-207 272 -24 23 -90 81 -148 128 -57 47 -120 104 -139 127 -34 39 -36 46 -31
89 10 77 71 125 145 113 62 -11 75 -14 116 -24 171 -43 370 -23 424 41 9 11
22 26 28 33 18 18 29 95 14 96 -26 3 -30 4 -37 12 -4 4 -23 7 -43 7 -46 0
-111 18 -111 30 0 6 -5 10 -11 10 -7 0 -32 17 -57 37 -45 37 -76 91 -87 152
-3 19 -11 43 -17 55 -14 28 -128 136 -143 136 -7 0 -27 10 -46 23 -37 24 -178
90 -224 103 -5 2 -35 10 -65 19 -30 9 -75 21 -100 27 -32 8 -63 27 -107 67
-68 61 -178 122 -259 143 -27 7 -52 16 -55 21 -3 5 -13 1 -22 -8z"/>
</g>
</svg>
